# xmcd
#
# Track frame offsets:
#	150
#	21009
#	39454
#	54893
#	73995
#	95553
#	113385
#	136848
#	149634
#	168414
#	187193
#	208635
#	226995
#
# Disc length: 3342 seconds
#
# Revision: 1
# Processed by: cddbd v1.5.2PL0 Copyright (c) Steve Scherf et al.
# Submitted via: audiograbber 1.83.01
#
DISCID=b60d0c0d
DTITLE=Seasick Steve - Can U Cook?
DYEAR=2018
DGENRE=Blues
TTITLE0=Hate Da Winter
TTITLE1=Sun On My Face
TTITLE2=Can U Cook?
TTITLE3=Last Rodeo
TTITLE4=Down De Road
TTITLE5=Chewin' On Da Blues
TTITLE6=Shady Tree
TTITLE7=Lay
TTITLE8=Locked Up And Locked Down Blues
TTITLE9=Young Blood
TTITLE10=Get My Drift
TTITLE11=Ain't Nothin' But A Thang
TTITLE12=Company
EXTD=
EXTT0=
EXTT1=
EXTT2=
EXTT3=
EXTT4=
EXTT5=
EXTT6=
EXTT7=
EXTT8=
EXTT9=
EXTT10=
EXTT11=
EXTT12=
PLAYORDER=
